<?xml version="1.0" encoding="UTF-8" standalone="no"?>
<svg
   width="543"
   height="450"
   viewBox="0 0 543 450"
   version="1.1"
   id="svg2"
   xmlns="http://www.w3.org/2000/svg"
   xmlns:svg="http://www.w3.org/2000/svg">
   <!-- Generator: Sketch 53.2 (72643) - https://sketchapp.com, edited manually -->
   <path
      d="M 37.328419,193.72207 C 183.08857,130.21669 280.28483,88.350049 328.91721,68.122161 467.77253,10.36743 496.62548,0.33481503 515.43142,0.00353203 c 4.1362,-0.07286 13.38441,0.952211 19.37502,5.81317497 5.05835,4.104503 6.45011,9.649103 7.11611,13.540622 0.666,3.891519 1.49532,12.756499 0.83607,19.683337 -7.52462,79.061824 -40.08352,270.924014 -56.64764,359.474604 -7.0089,37.46907 -20.80965,50.03226 -34.17037,51.26174 -29.03593,2.67193 -51.0845,-19.18897 -79.20722,-37.62377 -44.00651,-28.84682 -68.86739,-46.80406 -111.58332,-74.95323 -49.36565,-32.53123 -17.36396,-50.41096 10.76939,-79.63145 7.36263,-7.64714 135.29562,-124.01208 137.77176,-134.5682 0.30969,-1.32022 0.59709,-6.24138 -2.32648,-8.83993 -2.92358,-2.59855 -7.23852,-1.70994 -10.3523,-1.00323 -4.41369,1.00174 -74.71465,47.46808 -210.90289,139.39899 -19.9547,13.70243 -38.02904,20.37872 -54.22303,20.02886 C 114.03394,272.19935 79.692754,262.49093 54.163606,254.19241 22.851067,244.01394 -2.0355162,238.63251 0.13154684,221.34631 1.2602868,212.34259 13.659244,203.13451 37.328419,193.72207 Z"
      fill="#fff" />
</svg>